# xmcd CD database file
#
# Track frame offsets:
#	150
#	9382
#	21105
#	39240
#	47545
#	65140
#	78932
#	96310
#	111917
#	122170
#	135687
#	144617
#	157090
#	172995
#	185382
#
# Disc length: 2798 seconds
#
# Revision: 0
# Processed by: cddbd v1.5.2PL0 Copyright (c) Steve Scherf et al.
# Submitted via: CDex 1.70beta2
#
DISCID=c70aec0f
DTITLE=Billie Holiday - Summer of 49
DYEAR=1900
DGENRE=Jazz
TTITLE0=Miss Brown
TTITLE1=Loverman
TTITLE2=I Wonder Where Our Love Has Gone
TTITLE3=Them There Eyes
TTITLE4=I Love My Man
TTITLE5=You Ain't Gonna Bother Me No More
TTITLE6=Good Morning Heartache
TTITLE7=Maybe You'll Be There
TTITLE8=Detour Ahead
TTITLE9=I Cover The Waterfront
TTITLE10=All Of Me
TTITLE11=Keeps On A-Rainin'
TTITLE12=Fine And Mellow
TTITLE13=I Love You, Porgy
TTITLE14=I Love My Man
EXTD=
EXTT0=
EXTT1=
EXTT2=
EXTT3=
EXTT4=
EXTT5=
EXTT6=
EXTT7=
EXTT8=
EXTT9=
EXTT10=
EXTT11=
EXTT12=
EXTT13=
EXTT14=
PLAYORDER=
